<svg id="Layer_1" data-name="Layer 1" xmlns="http://www.w3.org/2000/svg" viewBox="0 0 326.12 326.12"><defs><style>.cls-1{fill:#010101;}.cls-2{fill:#fff;}</style></defs><rect class="cls-1" width="326.12" height="326.12"/><polygon class="cls-2" points="48.79 174.56 25.62 145.34 25.52 145.22 22.6 145.22 22.6 180.36 25.74 180.36 25.74 150.38 49.51 180.36 51.93 180.36 51.93 145.22 48.79 145.22 48.79 174.56"/><path class="cls-2" d="M125.19,162.23a8.62,8.62,0,0,0,5.21-8.11V154a7.7,7.7,0,0,0-2.32-5.65c-2-2-5.3-3.15-9.2-3.15H104.31v35.14h15.31c7.71,0,12.7-3.83,12.7-9.75v-.09C132.32,166.55,129.86,163.7,125.19,162.23Zm-6.61-1.11h-11V148.26h11.28c5.1,0,8.27,2.3,8.27,6v.1C127.1,158.53,123.84,161.12,118.58,161.12Zm1.14,16.19H107.55V164.16h11.33c6.54,0,10.14,2.26,10.14,6.36v.09C129,174.75,125.46,177.31,119.72,177.31Z"/><path class="cls-2" d="M169.93,165.69c0,7.76-4.06,12.21-11.13,12.21s-11.33-4.54-11.33-12.45V145.22h-3.24v20.47c0,9.38,5.55,15.21,14.47,15.21s14.47-5.94,14.47-15.5V145.22h-3.24Z"/><polygon class="cls-2" points="190.35 145.22 187.1 145.22 187.1 180.36 210.58 180.36 210.58 177.31 190.35 177.31 190.35 145.22"/><rect class="cls-2" x="222.84" y="145.22" width="3.24" height="35.14"/><polygon class="cls-2" points="238.44 148.26 250.46 148.26 250.46 180.36 253.7 180.36 253.7 148.26 265.71 148.26 265.71 145.22 238.44 145.22 238.44 148.26"/><polygon class="cls-2" points="65.41 180.36 90.85 180.36 90.85 177.31 68.65 177.31 65.41 177.31 65.41 180.36"/><polygon class="cls-2" points="68.96 161.12 65.41 161.12 65.41 164.16 68.96 164.16 90.61 164.16 90.61 161.12 68.96 161.12"/><polygon class="cls-2" points="90.61 148.26 90.61 145.22 65.41 145.22 65.41 148.26 68.65 148.26 90.61 148.26"/><polygon class="cls-2" points="278.07 180.36 303.52 180.36 303.52 177.31 281.32 177.31 278.07 177.31 278.07 180.36"/><polygon class="cls-2" points="281.63 161.12 278.07 161.12 278.07 164.16 281.63 164.16 303.27 164.16 303.27 161.12 281.63 161.12"/><polygon class="cls-2" points="303.27 148.26 303.27 145.22 278.07 145.22 278.07 148.26 281.32 148.26 303.27 148.26"/></svg>